<svg version="1.1" xmlns="http://www.w3.org/2000/svg" width="156" height="156" viewBox="0 0 156 156">
<path d="M0 0 C-0.99 3.3 -1.98 6.6 -3 10 C-5.4440625 9.2575 -5.4440625 9.2575 -7.9375 8.5 C-20.82565423 5.29702676 -34.45013963 5.58244549 -46.1875 12.1875 C-54.15620039 17.58045885 -58.58360274 24.76691755 -61.5859375 33.75390625 C-63.27037465 42.89118327 -63.02224042 53.56017074 -59 62 C-58.69835937 62.70511719 -58.39671875 63.41023438 -58.0859375 64.13671875 C-56.05276242 68.60805094 -53.73463693 71.7208066 -50 75 C-48.824375 76.051875 -48.824375 76.051875 -47.625 77.125 C-40.37848338 82.3010833 -33.21802743 83.17997999 -24.5625 83.1875 C-23.82451172 83.19974609 -23.08652344 83.21199219 -22.32617188 83.22460938 C-21.60107422 83.22654297 -20.87597656 83.22847656 -20.12890625 83.23046875 C-19.15546265 83.23663208 -19.15546265 83.23663208 -18.16235352 83.24291992 C-15.29654546 82.99700586 -15.29654546 82.99700586 -10 81 C-9.67 71.43 -9.34 61.86 -9 52 C-15.27 52 -21.54 52 -28 52 C-28 48.7 -28 45.4 -28 42 C-17.77 42 -7.54 42 3 42 C3.20760662 48.37172916 3.38636937 54.73157577 3.49438477 61.10400391 C3.53943055 63.26717025 3.60068989 65.43006585 3.67895508 67.59228516 C4.39466677 87.88481658 4.39466677 87.88481658 -0.90625 93.84375 C-2.57009642 95.26990407 -4.26953258 96.65546184 -6 98 C-7.6972847 99.69219071 -9.37551321 101.40368853 -11.03515625 103.1328125 C-12.70834045 104.79948626 -14.38412581 106.46355278 -16.0625 108.125 C-16.92810547 108.98609375 -17.79371094 109.8471875 -18.68554688 110.734375 C-20.78805391 112.82526597 -22.89287901 114.91376068 -25 117 C-29.17258919 115.36312397 -31.96425073 112.30669032 -35.05078125 109.1796875 C-35.62781296 108.60219757 -36.20484467 108.02470764 -36.79936218 107.42971802 C-38.01957662 106.20648633 -39.23736351 104.98082895 -40.45288086 103.75292969 C-42.2904276 101.89728973 -44.13568538 100.04961463 -45.98242188 98.203125 C-51.37356669 92.79534226 -56.70482443 87.38632731 -61.6550293 81.56591797 C-63.4310639 79.49812237 -65.35029704 77.57875954 -67.25 75.625 C-71.29493855 71.05687442 -72.84548405 66.92883005 -74 61 C-74.20238281 60.02675781 -74.40476563 59.05351563 -74.61328125 58.05078125 C-77.37369995 43.38488327 -76.17447248 28.91492915 -67.671875 16.203125 C-59.85076976 5.89680876 -48.84101756 -0.82355635 -36 -3 C-35.36707031 -3.11988281 -34.73414063 -3.23976563 -34.08203125 -3.36328125 C-22.65516737 -5.14269908 -10.90853415 -3.48467063 0 0 Z " fill="#FE0102" transform="translate(108,15)"/>
<path d="M0 0 C5.06185803 4.1815349 9.69642178 8.63655993 14.27734375 13.33984375 C16.42144718 15.43472816 18.58633814 17.38481375 20.859375 19.33203125 C24.96658186 22.89404642 28.64062435 26.74721751 32.3125 30.75 C41.28924475 40.42018526 50.62147054 49.7213402 60 59 C63.98187392 57.40877651 66.58588468 54.62089487 69.5 51.58984375 C70.56238318 50.50704682 71.62488683 49.42436809 72.6875 48.34179688 C74.34892006 46.63682359 76.00779031 44.9294571 77.6640625 43.21948242 C79.26960373 41.56567032 80.8842397 39.92116417 82.5 38.27734375 C82.99177734 37.76380844 83.48355469 37.25027313 83.99023438 36.72117615 C86.50354635 34.17192489 88.34970476 32.3750377 92 32 C93.65 33.98 95.3 35.96 97 38 C92.75789864 43.06711299 88.32282911 47.81223371 83.6328125 52.46484375 C82.95322479 53.14301651 82.27363708 53.82118927 81.57345581 54.51991272 C79.42632998 56.66149141 77.27573373 58.79954529 75.125 60.9375 C73.65862227 62.39885589 72.1924742 63.86044226 70.7265625 65.32226562 C67.15369 68.88417935 63.57770316 72.44293865 60 76 C55.32700305 72.09516632 50.89671582 68.03853642 46.60571289 63.71923828 C46.0097229 63.12339432 45.41373291 62.52755035 44.79968262 61.91365051 C42.85495705 59.96823528 40.9137852 58.01931586 38.97265625 56.0703125 C37.61524512 54.71103383 36.25761121 53.3519776 34.89976501 51.99313354 C31.34497567 48.43454553 27.79320107 44.87296355 24.24206543 41.31072998 C20.61047362 37.6688668 16.97601168 34.02987037 13.34179688 30.390625 C6.22506729 23.26320489 -0.88847777 16.13261559 -8 9 C-7.04270084 7.87411986 -6.08412105 6.7493285 -5.125 5.625 C-4.59132813 4.99851562 -4.05765625 4.37203125 -3.5078125 3.7265625 C-2.38567993 2.44163349 -1.20628025 1.20628025 0 0 Z " fill="#0288FE" transform="translate(21,72)"/>
<path d="M0 0 C0.83402344 0.28617187 1.66804688 0.57234375 2.52734375 0.8671875 C18.49735498 6.07675247 31.74343544 6.93656269 48.25 3.65625 C51.29070031 3.12412745 53.93333857 2.85625025 57 3 C51.89551178 9.18134869 46.31705058 14.79822878 40.625 20.4375 C39.23474609 21.82098633 39.23474609 21.82098633 37.81640625 23.23242188 C35.54654154 25.49058625 33.27436462 27.74636942 31 30 C26.72113402 28.34632885 23.8599365 25.13020426 20.703125 21.93359375 C20.10949158 21.33950211 19.51585815 20.74541046 18.90423584 20.13331604 C17.65464684 18.88071283 16.40748226 17.62568693 15.16259766 16.3684082 C13.24826588 14.43574928 11.32598142 12.51128287 9.40234375 10.58789062 C8.1896298 9.37026394 6.97737392 8.15218082 5.765625 6.93359375 C5.18758118 6.3544371 4.60953735 5.77528046 4.01397705 5.17857361 C0 1.11606324 0 1.11606324 0 0 Z " fill="none" transform="translate(52,102)"/>
</svg>
